<?xml version="1.0" standalone="no"?>
<!DOCTYPE svg PUBLIC "-//W3C//DTD SVG 20010904//EN"
 "http://www.w3.org/TR/2001/REC-SVG-20010904/DTD/svg10.dtd">
<svg version="1.0" xmlns="http://www.w3.org/2000/svg"
 width="200.000000pt" height="122.000000pt" viewBox="0 0 200.000000 122.000000"
 preserveAspectRatio="xMidYMid meet">
<metadata>
Created by potrace 1.16, written by Peter Selinger 2001-2019
</metadata>
<g transform="translate(0.000000,122.000000) scale(0.100000,-0.100000)"
fill="#000000" stroke="none">
<path d="M180 1210 c-10 -6 -11 -10 -2 -10 6 0 12 -6 12 -14 0 -8 -6 -17 -12
-19 -7 -3 12 -6 42 -6 30 0 50 3 44 7 -7 4 -13 16 -15 27 -5 23 -30 27 -37 6
-3 -10 0 -12 13 -7 15 5 16 4 5 -9 -18 -22 -28 -19 -32 10 -2 19 -6 22 -18 15z"/>
<path d="M282 1187 c4 -43 32 -44 35 -2 1 24 -3 31 -19 32 -16 2 -19 -4 -16
-30z"/>
<path d="M1102 1206 c2 -7 -80 -89 -182 -182 -102 -93 -210 -193 -240 -221
-30 -29 -61 -53 -67 -53 -7 0 -13 -4 -13 -8 0 -8 -32 -32 -140 -107 -25 -18
-50 -30 -55 -28 -6 2 -11 -5 -12 -16 -1 -13 5 -18 23 -18 13 0 24 5 24 12 0
11 42 44 134 107 22 14 46 24 53 21 9 -4 13 0 11 8 -1 8 58 70 132 139 74 68
157 144 185 169 27 25 77 72 110 103 34 32 65 55 68 51 4 -3 7 2 7 13 0 13 -7
20 -20 21 -12 1 -19 -4 -18 -11z"/>
<path d="M350 1189 c-11 -8 -12 -12 -2 -16 8 -3 12 -29 12 -78 0 -49 -4 -75
-12 -79 -10 -5 -10 -7 0 -12 8 -4 12 -30 12 -79 0 -49 -4 -75 -12 -79 -10 -5
-10 -7 0 -12 8 -4 12 -31 12 -84 0 -53 -4 -80 -12 -83 -10 -4 -10 -6 0 -6 17
-1 17 -157 0 -164 -10 -4 -10 -6 0 -6 15 -1 18 -161 2 -161 -5 0 -10 -4 -10
-10 0 -5 7 -10 15 -10 13 0 15 56 15 445 0 245 -1 445 -2 445 -2 0 -10 -5 -18
-11z"/>
<path d="M240 1030 c-10 -6 -11 -10 -2 -10 6 0 12 -6 12 -14 0 -8 -6 -17 -12
-19 -7 -3 -4 -6 8 -6 17 -1 20 4 16 29 -2 17 -5 30 -6 30 0 0 -8 -5 -16 -10z"/>
<path d="M284 1026 c-9 -23 0 -51 16 -51 10 0 15 10 15 29 0 32 -21 47 -31 22z
m26 -21 c0 -8 -4 -15 -10 -15 -5 0 -10 7 -10 15 0 8 5 15 10 15 6 0 10 -7 10
-15z"/>
<path d="M43 993 c-7 -2 -13 -9 -13 -14 0 -5 11 -4 24 2 17 8 29 8 44 0 29
-15 37 -14 22 4 -12 14 -52 19 -77 8z"/>
<path d="M73 963 c-21 -8 -15 -33 7 -33 13 0 20 7 20 20 0 20 -5 23 -27 13z"/>
<path d="M37 908 c6 -11 81 -10 87 0 3 5 -17 8 -44 8 -26 -1 -46 -4 -43 -8z"/>
<path d="M210 854 c0 -8 5 -12 10 -9 7 4 8 -3 4 -22 -5 -19 -3 -25 4 -18 6 6
14 22 17 38 6 23 4 27 -14 27 -12 0 -21 -6 -21 -16z"/>
<path d="M282 837 c4 -43 32 -44 35 -2 1 24 -3 31 -19 32 -16 2 -19 -4 -16
-30z"/>
<path d="M60 805 c0 -44 3 -53 15 -49 8 4 15 1 15 -5 0 -6 -7 -11 -15 -11 -8
0 -15 -4 -15 -8 0 -4 9 -8 20 -8 18 0 20 7 20 68 0 61 -2 68 -20 68 -18 0 -20
-7 -20 -55z"/>
<path d="M47 698 c-9 -6 -9 -8 1 -8 6 0 12 -10 12 -23 0 -16 6 -23 20 -23 16
0 20 7 20 33 0 26 -4 31 -20 30 -12 -1 -26 -5 -33 -9z"/>
<path d="M1612 698 c-17 -17 -15 -45 5 -56 13 -8 90 -5 101 3 9 7 -13 35 -29
35 -10 0 -19 7 -19 15 0 18 -41 20 -58 3z m35 -28 c-2 -25 -27 -27 -27 -2 0
10 3 22 6 25 11 11 23 -2 21 -23z"/>
<path d="M282 667 c4 -43 32 -44 35 -2 1 24 -3 31 -19 32 -16 2 -19 -4 -16
-30z"/>
<path d="M1380 690 c0 -4 -10 -12 -22 -18 -26 -12 -32 -10 67 -17 27 -2 51 -8
53 -14 5 -14 42 -15 42 -1 0 6 7 10 15 10 8 0 15 5 15 10 0 6 -24 10 -54 10
-32 0 -60 5 -68 13 -14 14 -48 19 -48 7z"/>
<path d="M1109 672 c-4 -12 -383 -103 -480 -115 -20 -2 -42 -8 -48 -11 -6 -4
-50 -8 -98 -10 -70 -3 -87 -7 -89 -20 -1 -9 2 -18 7 -22 5 -3 9 -1 9 3 0 5 8
9 18 10 9 1 48 6 85 12 38 6 80 9 95 6 14 -2 29 0 32 5 8 12 442 108 474 105
22 -3 26 1 26 23 0 19 -3 23 -9 13 -7 -11 -9 -11 -13 0 -4 11 -6 11 -9 1z"/>
<path d="M1727 660 c5 -19 14 -20 119 -20 107 0 114 1 114 20 0 15 -7 20 -25
20 -19 0 -23 -4 -19 -17 5 -17 5 -17 -9 0 -8 9 -26 17 -40 17 -21 0 -25 -4
-21 -17 5 -17 5 -17 -9 0 -10 12 -29 17 -65 17 -45 0 -50 -2 -45 -20z"/>
<path d="M60 605 c0 -14 -4 -25 -10 -25 -5 0 -10 -12 -10 -27 0 -24 4 -28 30
-28 17 0 30 5 30 12 0 7 -7 10 -17 7 -14 -5 -13 -1 4 13 16 13 20 25 16 46 -7
36 -43 38 -43 2z m30 -19 c0 -3 -4 -8 -10 -11 -5 -3 -10 -1 -10 4 0 6 5 11 10
11 6 0 10 -2 10 -4z"/>
<path d="M1607 568 c7 -41 3 -37 44 -40 65 -3 79 1 73 20 -4 12 -1 11 13 -5
20 -25 66 -22 56 3 -3 8 0 14 6 14 6 0 11 -7 11 -15 0 -8 6 -15 14 -15 8 0 12
8 9 23 -3 17 0 23 16 24 23 2 30 -32 9 -40 -7 -3 -3 -6 8 -6 18 -1 20 3 16 26
-4 21 -2 25 12 20 9 -4 16 -2 16 3 0 6 -22 10 -50 10 -27 0 -50 -4 -50 -10 0
-5 -5 -10 -11 -10 -5 0 -7 5 -4 10 3 6 0 10 -8 10 -10 0 -13 -8 -9 -26 4 -20
1 -25 -9 -22 -8 3 -13 13 -11 23 5 24 -15 35 -61 35 -24 0 -40 -5 -43 -15 -4
-8 -12 -15 -20 -15 -8 0 -14 7 -14 15 0 8 -4 15 -10 15 -5 0 -7 -14 -3 -32z
m96 9 c4 3 7 -3 7 -15 l0 -22 -20 20 c-22 22 -27 39 -7 21 8 -6 17 -8 20 -4z
m-63 -27 c0 -5 -4 -10 -10 -10 -5 0 -10 5 -10 10 0 6 5 10 10 10 6 0 10 -4 10
-10z m40 0 c13 -8 13 -10 -2 -10 -9 0 -20 5 -23 10 -8 13 5 13 25 0z"/>
<path d="M1376 574 c-3 -8 -12 -14 -21 -14 -8 0 -15 -4 -15 -9 0 -5 22 -8 49
-6 28 2 61 -3 77 -11 31 -16 54 -18 54 -4 0 6 7 10 15 10 8 0 15 4 15 8 0 5
-25 8 -55 9 -30 0 -62 6 -71 14 -22 18 -42 20 -48 3z"/>
<path d="M217 524 c-13 -14 -7 -26 10 -20 15 6 15 4 -2 -14 -18 -20 -18 -20
16 -20 19 0 29 4 23 8 -7 4 -13 16 -15 26 -4 21 -21 31 -32 20z"/>
<path d="M282 497 c4 -43 32 -44 35 -2 1 24 -3 31 -19 32 -16 2 -19 -4 -16
-30z"/>
<path d="M284 346 c-9 -23 0 -51 16 -51 10 0 15 10 15 29 0 32 -21 47 -31 22z
m26 -21 c0 -8 -4 -15 -10 -15 -5 0 -10 7 -10 15 0 8 5 15 10 15 6 0 10 -7 10
-15z"/>
<path d="M411 258 c0 -13 3 -17 6 -10 3 8 33 12 98 12 65 0 95 -4 98 -12 4
-10 6 -10 6 0 1 9 58 12 250 12 190 0 251 -3 255 -12 3 -7 5 -4 3 7 -2 20 -11
20 -360 23 l-357 2 1 -22z"/>
<path d="M354 215 c-13 -32 0 -50 36 -50 32 0 35 2 35 30 0 26 -4 30 -33 32
-21 2 -35 -2 -38 -12z m66 -20 c0 -8 -4 -15 -10 -15 -5 0 -10 7 -10 15 0 8 5
15 10 15 6 0 10 -7 10 -15z"/>
<path d="M444 216 c-9 -23 0 -51 16 -51 10 0 15 10 15 29 0 32 -21 47 -31 22z
m26 -21 c0 -8 -4 -15 -10 -15 -5 0 -10 7 -10 15 0 8 5 15 10 15 6 0 10 -7 10
-15z"/>
<path d="M530 220 c-10 -6 -11 -10 -2 -10 6 0 12 -6 12 -14 0 -8 -6 -17 -12
-19 -7 -3 0 -6 15 -6 16 -1 26 -5 22 -11 -3 -5 -1 -10 4 -10 6 0 11 7 11 15 0
8 -6 15 -14 15 -8 0 -16 11 -18 25 -2 19 -6 22 -18 15z"/>
<path d="M593 214 c-2 -7 -3 -21 -1 -31 3 -15 13 -18 58 -18 54 0 55 0 55 30
0 29 -1 30 -53 31 -35 0 -56 -4 -59 -12z m27 -19 c0 -8 -4 -15 -10 -15 -5 0
-10 7 -10 15 0 8 5 15 10 15 6 0 10 -7 10 -15z m40 0 c0 -8 -4 -15 -10 -15 -5
0 -10 7 -10 15 0 8 5 15 10 15 6 0 10 -7 10 -15z m40 0 c0 -8 -4 -15 -10 -15
-5 0 -10 7 -10 15 0 8 5 15 10 15 6 0 10 -7 10 -15z"/>
<path d="M1037 224 c-13 -14 -7 -26 10 -20 15 6 15 4 -2 -14 -18 -20 -18 -20
9 -20 16 0 25 -4 21 -10 -3 -5 -1 -10 4 -10 6 0 11 4 11 9 0 5 8 8 18 7 13 -1
17 7 17 29 0 36 -28 42 -33 8 -4 -29 -20 -30 -24 -1 -3 22 -19 33 -31 22z m83
-29 c0 -8 -4 -15 -10 -15 -5 0 -10 7 -10 15 0 8 5 15 10 15 6 0 10 -7 10 -15z"/>
<path d="M1143 214 c-12 -31 2 -49 37 -49 32 0 35 2 35 30 0 26 -3 30 -33 31
-20 1 -36 -4 -39 -12z m27 -19 c0 -8 -4 -15 -10 -15 -5 0 -10 7 -10 15 0 8 5
15 10 15 6 0 10 -7 10 -15z m40 0 c0 -8 -4 -15 -10 -15 -5 0 -10 7 -10 15 0 8
5 15 10 15 6 0 10 -7 10 -15z"/>
<path d="M507 113 c-13 -13 -7 -30 16 -42 l22 -12 -22 5 c-14 2 -23 -1 -23 -9
0 -7 10 -11 23 -10 12 1 50 3 84 4 57 1 61 3 56 22 -5 18 -13 20 -62 19 -77
-2 -81 -2 -81 11 0 8 5 8 15 -1 12 -10 15 -10 15 4 0 16 -30 22 -43 9z"/>
<path d="M724 93 c2 -16 1 -22 -1 -15 -2 6 -14 12 -26 12 -18 0 -22 -6 -22
-30 0 -18 5 -30 13 -30 7 0 10 5 7 10 -4 6 18 10 59 10 37 0 66 -4 66 -10 0
-5 11 -10 24 -10 19 0 23 5 22 30 -1 30 -2 30 -58 30 -47 0 -56 -3 -52 -15 4
-8 1 -15 -5 -15 -6 0 -11 14 -11 30 0 17 -4 30 -10 30 -5 0 -8 -12 -6 -27z
m-19 -23 c3 -5 1 -10 -4 -10 -6 0 -11 5 -11 10 0 6 2 10 4 10 3 0 8 -4 11 -10z"/>
<path d="M900 70 c0 -18 7 -20 70 -20 63 0 70 2 70 20 0 17 -7 20 -50 20 -42
0 -49 -2 -44 -17 5 -17 5 -17 -9 0 -19 23 -37 22 -37 -3z"/>
</g>
</svg>
